ply
format ascii 1.0
element vertex 54
property float32 x
property float32 y
property float32 z
element face 52
property list uchar uint vertex_indices
end_header
-1	-0.75	0.75
-1	0.75	-0.75
-1	-0.75	-0.75
-0.75	1	0.75
0.75	1	-0.75
-0.75	1	-0.75
1	0.75	0.75
1	-0.75	-0.75
1	0.75	-0.75
0.75	-1	0.75
-0.75	-1	-0.75
0.75	-1	-0.75
0.75	0.75	-1
-0.75	-0.75	-1
-0.75	0.75	-1
-0.25	0.25	1
0.25	-0.25	1
0.391	0.391	1
-1	0.75	0.75
0.75	1	0.75
1	-0.75	0.75
-0.75	-1	0.75
0.75	-0.75	-1
-0.75	-0.75	1
-1	0	0
-1	0	-1
-1	-1	0
0	1	0
0	1	-1
-1	1	0
1	0	0
1	0	-1
1	1	0
0	-1	0
0	-1	-1
1	-1	0
0	0	-1
-1	0	-1
0	1	-1
0	0	1
0.5	0.25	1
0.25	0.5	1
-1	0	1
-1	1	0
0	1	1
1	1	0
1	0	1
1	-1	0
0	-1	1
-1	-1	0
1	0	-1
0	-1	-1
-1	0	1
0	-1	1
3	1	25	27
3	25	2	26
3	27	26	3
3	27	25	26
3	4	28	30
3	28	5	29
3	30	29	6
3	30	28	29
3	7	31	33
3	31	8	32
3	33	32	9
3	33	31	32
3	10	34	36
3	34	11	35
3	36	35	12
3	36	34	35
3	13	37	39
3	37	14	38
3	39	38	15
3	39	37	38
3	16	40	42
3	40	17	41
3	42	41	18
3	42	40	41
3	16	40	42
3	40	17	41
3	42	41	18
3	42	40	41
3	1	43	25
3	43	19	44
3	25	44	2
3	25	43	44
3	4	45	28
3	45	20	46
3	28	46	5
3	28	45	46
3	7	47	31
3	47	21	48
3	31	48	8
3	31	47	48
3	10	49	34
3	49	22	50
3	34	50	11
3	34	49	50
3	13	51	37
3	51	23	52
3	37	52	14
3	37	51	52
3	16	53	40
3	53	24	54
3	40	54	17
3	40	53	54
