ply 
format ascii 1.0
comment object: vertex1
element vertex 24
property float x
property float y
property float z
property uchar red
property uchar green
property uchar blue
element face 11
property list uchar int vertex_index
end_header
1.57321 1 -1.71068 0 0 0
1.57321 -1 -1.71068 0 0 0
-0.426786 -1 -1.71068 0 0 0
-0.426786 1 -1.71068 0 0 0
1.57321 0.999999 0.289324 0 0 0
-0.426786 1 0.289324 0 0 0
-0.426786 -1 0.289324 0 0 0
1.57321 -1 0.289324 0 0 0
1.57321 1 -1.71068 0 0 0
1.57321 0.999999 0.289324 0 0 0
1.57321 -1 0.289324 0 0 0
1.57321 -1 -1.71068 0 0 0
1.57321 -1 -1.71068 0 0 0
1.57321 -1 0.289324 0 0 0
-0.426786 -1 0.289324 0 0 0
-0.426786 -1 -1.71068 0 0 0
-0.426786 -1 -1.71068 0 0 0
-0.426786 -1 0.289324 0 0 0
-0.426786 1 0.289324 0 0 0
-0.426786 1 -1.71068 0 0 0
1.57321 0.999999 0.289324 0 0 0
1.57321 1 -1.71068 0 0 0
-0.426786 1 -1.71068 0 0 0
-0.426786 1 0.289324 0 0 0
3 0 1 2
3 0 2 3
3 4 5 6
3 4 6 7
3 8 9 10
3 8 10 11
3 12 13 14
3 12 14 15
3 16 17 18
3 16 18 19
3 20 21 22
