ply
format ascii 1.0
element vertex 256
property float32 x
property float32 y
property float32 z
element face 240
property list uchar uint vertex_indices
end_header
0	1.5	0
0	1.5	0
0	1.5	0
0	1.5	0
0	1.5	0
0	1.5	0
0	1.5	0
0	1.5	0
0	1.5	0
0	1.5	0
0	1.5	0
0	1.5	0
0	1.5	0
0	1.5	0
0	1.5	0
0	1.5	0
0.0956	1.5	0.0426
0.0915	1.52	0.0407
0.0798	1.54	0.0355
0.0626	1.55	0.0279
0.0428	1.55	0.0191
0.0239	1.54	0.0106
0.00913	1.53	0.00407
0.00104	1.51	0.000465
0.00104	1.49	0.000465
0.00913	1.47	0.00407
0.0239	1.45	0.0106
0.0428	1.45	0.0191
0.0626	1.45	0.0279
0.0798	1.46	0.0355
0.0915	1.48	0.0407
0.0956	1.5	0.0426
0.14	1.49	0.155
0.134	1.53	0.149
0.117	1.57	0.13
0.0916	1.59	0.102
0.0626	1.6	0.0696
0.035	1.58	0.0388
0.0134	1.55	0.0148
0.00153	1.51	0.0017
0.00153	1.47	0.0017
0.0134	1.43	0.0148
0.035	1.4	0.0388
0.0626	1.39	0.0696
0.0916	1.39	0.102
0.117	1.41	0.13
0.134	1.45	0.149
0.14	1.49	0.155
0.0967	1.48	0.298
0.0925	1.55	0.285
0.0807	1.6	0.248
0.0633	1.63	0.195
0.0433	1.64	0.133
0.0242	1.62	0.0744
0.00923	1.57	0.0284
0.00106	1.51	0.00325
0.00106	1.45	0.00325
0.00923	1.39	0.0284
0.0242	1.35	0.0744
0.0433	1.33	0.133
0.0633	1.33	0.195
0.0807	1.37	0.248
0.0925	1.42	0.285
0.0967	1.48	0.298
-0.0435	1.47	0.414
-0.0416	1.55	0.396
-0.0363	1.62	0.345
-0.0284	1.66	0.271
-0.0195	1.67	0.185
-0.0109	1.65	0.103
-0.00415	1.59	0.0395
-0.000475	1.51	0.00452
-0.000475	1.42	0.00452
-0.00415	1.35	0.0395
-0.0109	1.29	0.103
-0.0195	1.26	0.185
-0.0284	1.27	0.271
-0.0363	1.31	0.345
-0.0416	1.38	0.396
-0.0435	1.47	0.414
-0.259	1.45	0.448
-0.248	1.55	0.429
-0.216	1.64	0.374
-0.169	1.7	0.293
-0.116	1.71	0.201
-0.0647	1.67	0.112
-0.0247	1.6	0.0428
-0.00283	1.5	0.0049
-0.00283	1.4	0.0049
-0.0247	1.3	0.0428
-0.0647	1.22	0.112
-0.116	1.19	0.201
-0.169	1.2	0.293
-0.216	1.26	0.374
-0.248	1.34	0.429
-0.259	1.45	0.448
-0.5	1.43	0.363
-0.478	1.55	0.348
-0.417	1.66	0.303
-0.327	1.72	0.238
-0.224	1.73	0.163
-0.125	1.69	0.0908
-0.0477	1.61	0.0347
-0.00546	1.49	0.00397
-0.00546	1.36	0.00397
-0.0477	1.24	0.0347
-0.125	1.16	0.0908
-0.224	1.12	0.163
-0.327	1.13	0.238
-0.417	1.2	0.303
-0.478	1.3	0.348
-0.5	1.43	0.363
-0.701	1.4	0.149
-0.671	1.55	0.143
-0.585	1.67	0.124
-0.459	1.74	0.0975
-0.314	1.76	0.0667
-0.175	1.71	0.0373
-0.0669	1.61	0.0142
-0.00766	1.47	0.00163
-0.00766	1.33	0.00163
-0.0669	1.19	0.0142
-0.175	1.09	0.0373
-0.314	1.04	0.0667
-0.459	1.06	0.0975
-0.585	1.13	0.124
-0.671	1.25	0.143
-0.701	1.4	0.149
-0.796	1.37	-0.169
-0.761	1.54	-0.162
-0.664	1.67	-0.141
-0.521	1.76	-0.111
-0.356	1.77	-0.0757
-0.199	1.72	-0.0423
-0.076	1.61	-0.0162
-0.00869	1.45	-0.00185
-0.00869	1.29	-0.00185
-0.076	1.13	-0.0162
-0.199	1.02	-0.0423
-0.356	0.966	-0.0757
-0.521	0.983	-0.111
-0.664	1.07	-0.141
-0.761	1.2	-0.162
-0.796	1.37	-0.169
-0.735	1.34	-0.534
-0.703	1.52	-0.511
-0.613	1.67	-0.445
-0.481	1.77	-0.349
-0.329	1.79	-0.239
-0.184	1.73	-0.133
-0.0701	1.6	-0.051
-0.00803	1.43	-0.00583
-0.00803	1.24	-0.00583
-0.0701	1.07	-0.051
-0.184	0.943	-0.133
-0.329	0.885	-0.239
-0.481	0.905	-0.349
-0.613	0.999	-0.445
-0.703	1.15	-0.511
-0.735	1.34	-0.534
-0.5	1.3	-0.866
-0.478	1.5	-0.829
-0.417	1.67	-0.723
-0.327	1.77	-0.567
-0.224	1.8	-0.388
-0.125	1.73	-0.217
-0.0477	1.59	-0.0827
-0.00546	1.4	-0.00946
-0.00546	1.2	-0.00946
-0.0477	1.01	-0.0827
-0.125	0.866	-0.217
-0.224	0.802	-0.388
-0.327	0.824	-0.567
-0.417	0.927	-0.723
-0.478	1.1	-0.829
-0.5	1.3	-0.866
-0.114	1.26	-1.08
-0.109	1.48	-1.04
-0.095	1.66	-0.904
-0.0745	1.78	-0.709
-0.051	1.8	-0.485
-0.0285	1.73	-0.271
-0.0109	1.58	-0.103
-0.00124	1.37	-0.0118
-0.00124	1.14	-0.0118
-0.0109	0.938	-0.103
-0.0285	0.786	-0.271
-0.051	0.716	-0.485
-0.0745	0.74	-0.709
-0.095	0.853	-0.904
-0.109	1.04	-1.04
-0.114	1.26	-1.08
0.363	1.21	-1.12
0.348	1.45	-1.07
0.303	1.65	-0.933
0.238	1.77	-0.732
0.163	1.8	-0.501
0.0908	1.72	-0.28
0.0347	1.56	-0.107
0.00397	1.34	-0.0122
0.00397	1.09	-0.0122
0.0347	0.868	-0.107
0.0908	0.704	-0.28
0.163	0.629	-0.501
0.238	0.655	-0.732
0.303	0.777	-0.933
0.348	0.974	-1.07
0.363	1.21	-1.12
0.842	1.17	-0.935
0.806	1.42	-0.895
0.703	1.63	-0.781
0.551	1.76	-0.612
0.377	1.79	-0.419
0.211	1.71	-0.234
0.0804	1.54	-0.0893
0.0092	1.3	-0.0102
0.0092	1.03	-0.0102
0.0804	0.796	-0.0893
0.211	0.621	-0.234
0.377	0.54	-0.419
0.551	0.567	-0.612
0.703	0.698	-0.781
0.806	0.91	-0.895
0.842	1.17	-0.935
1.22	1.11	-0.544
1.17	1.39	-0.521
1.02	1.61	-0.454
0.8	1.75	-0.356
0.547	1.78	-0.244
0.306	1.69	-0.136
0.117	1.51	-0.052
0.0134	1.25	-0.00595
0.0134	0.976	-0.00595
0.117	0.721	-0.052
0.306	0.535	-0.136
0.547	0.449	-0.244
0.8	0.478	-0.356
1.02	0.617	-0.454
1.17	0.843	-0.521
1.22	1.11	-0.544
1.41	1.06	-3.46e-16
1.35	1.35	-3.31e-16
1.18	1.59	-2.89e-16
0.926	1.73	-2.27e-16
0.633	1.76	-1.55e-16
0.354	1.67	-8.66e-17
0.135	1.48	-3.31e-17
0.0155	1.21	-3.78e-18
0.0155	0.914	-3.78e-18
0.135	0.645	-3.31e-17
0.354	0.448	-8.66e-17
0.633	0.357	-1.55e-16
0.926	0.388	-2.27e-16
1.18	0.535	-2.89e-16
1.35	0.773	-3.31e-16
1.41	1.06	-3.46e-16
4	0	1	17	16
4	1	2	18	17
4	2	3	19	18
4	3	4	20	19
4	4	5	21	20
4	5	6	22	21
4	6	7	23	22
4	7	8	24	23
4	8	9	25	24
4	9	10	26	25
4	10	11	27	26
4	11	12	28	27
4	12	13	29	28
4	13	14	30	29
4	14	15	31	30
4	15	16	32	31
4	16	17	33	32
4	17	18	34	33
4	18	19	35	34
4	19	20	36	35
4	20	21	37	36
4	21	22	38	37
4	22	23	39	38
4	23	24	40	39
4	24	25	41	40
4	25	26	42	41
4	26	27	43	42
4	27	28	44	43
4	28	29	45	44
4	29	30	46	45
4	30	31	47	46
4	31	32	48	47
4	32	33	49	48
4	33	34	50	49
4	34	35	51	50
4	35	36	52	51
4	36	37	53	52
4	37	38	54	53
4	38	39	55	54
4	39	40	56	55
4	40	41	57	56
4	41	42	58	57
4	42	43	59	58
4	43	44	60	59
4	44	45	61	60
4	45	46	62	61
4	46	47	63	62
4	47	48	64	63
4	48	49	65	64
4	49	50	66	65
4	50	51	67	66
4	51	52	68	67
4	52	53	69	68
4	53	54	70	69
4	54	55	71	70
4	55	56	72	71
4	56	57	73	72
4	57	58	74	73
4	58	59	75	74
4	59	60	76	75
4	60	61	77	76
4	61	62	78	77
4	62	63	79	78
4	63	64	80	79
4	64	65	81	80
4	65	66	82	81
4	66	67	83	82
4	67	68	84	83
4	68	69	85	84
4	69	70	86	85
4	70	71	87	86
4	71	72	88	87
4	72	73	89	88
4	73	74	90	89
4	74	75	91	90
4	75	76	92	91
4	76	77	93	92
4	77	78	94	93
4	78	79	95	94
4	79	80	96	95
4	80	81	97	96
4	81	82	98	97
4	82	83	99	98
4	83	84	100	99
4	84	85	101	100
4	85	86	102	101
4	86	87	103	102
4	87	88	104	103
4	88	89	105	104
4	89	90	106	105
4	90	91	107	106
4	91	92	108	107
4	92	93	109	108
4	93	94	110	109
4	94	95	111	110
4	95	96	112	111
4	96	97	113	112
4	97	98	114	113
4	98	99	115	114
4	99	100	116	115
4	100	101	117	116
4	101	102	118	117
4	102	103	119	118
4	103	104	120	119
4	104	105	121	120
4	105	106	122	121
4	106	107	123	122
4	107	108	124	123
4	108	109	125	124
4	109	110	126	125
4	110	111	127	126
4	111	112	128	127
4	112	113	129	128
4	113	114	130	129
4	114	115	131	130
4	115	116	132	131
4	116	117	133	132
4	117	118	134	133
4	118	119	135	134
4	119	120	136	135
4	120	121	137	136
4	121	122	138	137
4	122	123	139	138
4	123	124	140	139
4	124	125	141	140
4	125	126	142	141
4	126	127	143	142
4	127	128	144	143
4	128	129	145	144
4	129	130	146	145
4	130	131	147	146
4	131	132	148	147
4	132	133	149	148
4	133	134	150	149
4	134	135	151	150
4	135	136	152	151
4	136	137	153	152
4	137	138	154	153
4	138	139	155	154
4	139	140	156	155
4	140	141	157	156
4	141	142	158	157
4	142	143	159	158
4	143	144	160	159
4	144	145	161	160
4	145	146	162	161
4	146	147	163	162
4	147	148	164	163
4	148	149	165	164
4	149	150	166	165
4	150	151	167	166
4	151	152	168	167
4	152	153	169	168
4	153	154	170	169
4	154	155	171	170
4	155	156	172	171
4	156	157	173	172
4	157	158	174	173
4	158	159	175	174
4	159	160	176	175
4	160	161	177	176
4	161	162	178	177
4	162	163	179	178
4	163	164	180	179
4	164	165	181	180
4	165	166	182	181
4	166	167	183	182
4	167	168	184	183
4	168	169	185	184
4	169	170	186	185
4	170	171	187	186
4	171	172	188	187
4	172	173	189	188
4	173	174	190	189
4	174	175	191	190
4	175	176	192	191
4	176	177	193	192
4	177	178	194	193
4	178	179	195	194
4	179	180	196	195
4	180	181	197	196
4	181	182	198	197
4	182	183	199	198
4	183	184	200	199
4	184	185	201	200
4	185	186	202	201
4	186	187	203	202
4	187	188	204	203
4	188	189	205	204
4	189	190	206	205
4	190	191	207	206
4	191	192	208	207
4	192	193	209	208
4	193	194	210	209
4	194	195	211	210
4	195	196	212	211
4	196	197	213	212
4	197	198	214	213
4	198	199	215	214
4	199	200	216	215
4	200	201	217	216
4	201	202	218	217
4	202	203	219	218
4	203	204	220	219
4	204	205	221	220
4	205	206	222	221
4	206	207	223	222
4	207	208	224	223
4	208	209	225	224
4	209	210	226	225
4	210	211	227	226
4	211	212	228	227
4	212	213	229	228
4	213	214	230	229
4	214	215	231	230
4	215	216	232	231
4	216	217	233	232
4	217	218	234	233
4	218	219	235	234
4	219	220	236	235
4	220	221	237	236
4	221	222	238	237
4	222	223	239	238
4	223	224	240	239
4	224	225	241	240
4	225	226	242	241
4	226	227	243	242
4	227	228	244	243
4	228	229	245	244
4	229	230	246	245
4	230	231	247	246
4	231	232	248	247
4	232	233	249	248
4	233	234	250	249
4	234	235	251	250
4	235	236	252	251
4	236	237	253	252
4	237	238	254	253
4	238	239	255	254
4	239	240	256	255
